<svg width="578" height="544" fill="none" xmlns="http://www.w3.org/2000/svg"><path d="M508.839 415.951c-6.503-9.368-19.001-11.114-27.923-3.946-14.967 12.095-32.806 21.845-52.376 29.526l-16.128-121.358c55.033 50.243 92.948-7.417 92.948-7.417-43.488-10.256-36.09-56.031-32.357-75.333 3.733-19.301-2.431-59.981-42.752-57.32-32.482 2.164-54.934 50.005-57.908 65.65l-113.361-21.924c-2.515-1.773-9.919-23.676-12.634-32.478L194.01 20.761s-40.276-2.14-36.092 55.496c-3.79 1.056-7.513 2.573-11.17 4.551l-60.893 33.527c-26.805 14.728-38.029 49.919-25.002 78.223 13.026 28.304 45.602 39.358 72.407 24.631l20.31-11.509 15.464 51.706c2.587 8.387 1.144 17.728-3.895 24.975l-59.25 103.76c-15.763-13.62-29.498-28.581-40.175-44.852-6.271-9.491-18.696-11.615-27.847-4.603-9.101 7.021-11.386 20.45-5.086 30.058C74.831 430.9 153.286 477.73 244.555 495.382c98.734 19.095 196.529 1.933 259.789-49.203 8.952-7.329 10.987-20.806 4.495-30.228zM251.11 264.535l94.476 18.272-3.931 20.325-94.476-18.271 3.931-20.326zm-73.984 166.237c15.902-42.452 57.872-68.957 100.802-60.654 41.677 8.06 70.313 46.207 70.956 89.901-31.021 2.67-63.695.993-96.206-5.294-26.849-5.193-52.162-13.5-75.552-23.953z" fill="#A58E18" fill-opacity=".2"/></svg>