<svg xmlns="http://www.w3.org/2000/svg"><defs><clipPath id="clip0_676_3185"><path fill="#fff" d="M0 0h25v26H0z"/></clipPath><filter id="filter0_d_676_3185" x="-1" y="1" width="27" height="27" filterUnits="userSpaceOnUse" color-interpolation-filters="sRGB"><feFlood flood-opacity="0" result="BackgroundImageFix"/><feColorMatrix in="SourceAlpha" values="0 0 0 0 0 0 0 0 0 0 0 0 0 0 0 0 0 0 127 0" result="hardAlpha"/><feOffset dy="1"/><feGaussianBlur stdDeviation=".5"/><feComposite in2="hardAlpha" operator="out"/><feColorMatrix values="0 0 0 0 0 0 0 0 0 0 0 0 0 0 0 0 0 0 0.15 0"/><feBlend in2="BackgroundImageFix" result="effect1_dropShadow_676_3185"/><feBlend in="SourceGraphic" in2="effect1_dropShadow_676_3185" result="shape"/></filter></defs><symbol id="icon-arrow" viewBox="0 0 20 20"><path d="M17.344 6.328L10 13.672m0 0L2.656 6.328" stroke="#58267E" stroke-width="2" stroke-miterlimit="10" stroke-linecap="square"/></symbol><symbol id="icon-box" viewBox="0 0 30 30"><path d="M24.076 10.934c0-.006 0-.012-.006-.012 0-.012-.006-.018-.006-.03 0-.005-.005-.017-.005-.023 0-.006-.006-.012-.006-.017a.314.314 0 00-.041-.077L20.203 5.18a.432.432 0 00-.363-.194h-9.674a.432.432 0 00-.363.194l-3.809 5.595a.405.405 0 00-.04.077c0 .005-.007.011-.007.017-.006.006-.006.018-.006.024 0 .011-.005.017-.005.029 0 .006 0 .012-.006.012a.452.452 0 00-.012.088v13.552c0 .24.2.44.44.44h17.29c.24 0 .44-.2.44-.44V11.021c-.006-.029-.006-.058-.012-.087zm-1.265-.352h-5.678L16.6 5.865h3l3.21 4.717zm-9.118.879h2.608v3.223l-1.049-.739a.446.446 0 00-.252-.082.446.446 0 00-.252.082l-1.049.739V11.46h-.006zm2.022-5.596l.533 4.717h-2.502l.533-4.717h1.436zm-5.315 0h3l-.533 4.717H7.19l3.21-4.717zm12.803 18.27H6.797V11.46h6.023v4.066c0 .164.094.317.235.393a.442.442 0 00.457-.03L15 14.843l1.488 1.049a.445.445 0 00.457.035.44.44 0 00.235-.393v-4.066h6.023v12.668z"/><path d="M11.777 19.36H8.66c-.24 0-.44.199-.44.439s.2.44.44.44h3.117c.24 0 .44-.2.44-.44s-.2-.44-.44-.44zm-1.558 1.845H8.66c-.24 0-.44.2-.44.44s.2.439.44.439h1.559c.24 0 .44-.2.44-.44s-.2-.439-.44-.439z"/></symbol><symbol id="icon-burger" viewBox="0 0 25 26"><g clip-path="url(#clip0_676_3185)"><g filter="url(#filter0_d_676_3185)" shape-rendering="crispEdges"><circle cx="12.5" cy="13.5" r="12.5" fill="#D6C155" fill-opacity=".1"/><circle cx="12.5" cy="13.5" r="12" stroke="#58267E" stroke-opacity=".8"/></g><path d="M18.742 9.374a2.393 2.393 0 00-.628-.071H6.886c-.246 0-.455.023-.628.071-.172.047-.258.105-.258.173v.489c0 .068.086.125.258.173.173.047.382.07.628.07h11.228c.246 0 .455-.023.627-.07.173-.048.259-.105.259-.173v-.489c0-.068-.086-.126-.258-.173zm0 4a2.393 2.393 0 00-.628-.071H6.886c-.246 0-.455.023-.628.071-.172.047-.258.105-.258.173v.489c0 .068.086.125.258.173.173.047.382.07.628.07h11.228c.246 0 .455-.023.627-.07.173-.048.259-.105.259-.173v-.489c0-.068-.086-.126-.258-.173zm0 4a2.393 2.393 0 00-.628-.071H6.886c-.246 0-.455.023-.628.071-.172.048-.258.105-.258.173v.489c0 .067.086.125.258.173.173.047.382.07.628.07h11.228c.246 0 .455-.023.627-.07.173-.048.259-.105.259-.173v-.489c0-.068-.086-.125-.258-.173z" fill="#58267E" fill-opacity=".8"/></g></symbol><symbol id="icon-cart" viewBox="0 0 24 24"><path fill="none" d="M0 0h24v24H0z"/><path d="M18 6h-2c0-2.21-1.79-4-4-4S8 3.79 8 6H6c-1.1 0-2 .9-2 2v12c0 1.1.9 2 2 2h12c1.1 0 2-.9 2-2V8c0-1.1-.9-2-2-2zm-6-2c1.1 0 2 .9 2 2h-4c0-1.1.9-2 2-2zm6 16H6V8h2v2c0 .55.45 1 1 1s1-.45 1-1V8h4v2c0 .55.45 1 1 1s1-.45 1-1V8h2v12z"/></symbol><symbol id="icon-check" viewBox="0 0 12 12"><path d="M1 7l3 3 7-7" stroke="#A58E18" stroke-width="2" stroke-linecap="round" stroke-linejoin="round"/></symbol><symbol id="icon-close" viewBox="0 0 40 40"><path d="M20.943 20.059L31.77 9.23a.625.625 0 00-.884-.884L20.06 19.175 9.23 8.347a.625.625 0 10-.884.884l10.828 10.828L8.347 30.886a.625.625 0 10.884.884L20.06 20.942 30.886 31.77a.623.623 0 00.884 0 .625.625 0 000-.884L20.943 20.06z"/></symbol><symbol id="icon-delivery" viewBox="0 0 30 30"><path d="M15.48 12a.508.508 0 00-.347.152l-2.638 2.63-1.625-1.62c-.455-.474-1.19.258-.715.712l1.983 1.978a.506.506 0 00.715 0l2.995-2.987c.33-.32.087-.865-.367-.865h-.001zM.5 16h3a.499.499 0 110 1h-3a.499.499 0 110-1zm0-4h3a.499.499 0 110 1h-3a.499.499 0 110-1zm0-4h3a.499.499 0 110 1h-3a.499.499 0 110-1zm24 11a2.507 2.507 0 00-2.5 2.5c0 1.375 1.125 2.5 2.5 2.5s2.5-1.125 2.5-2.5-1.125-2.5-2.5-2.5zm0 1c.834 0 1.5.666 1.5 1.5s-.666 1.5-1.5 1.5-1.5-.666-1.5-1.5.666-1.5 1.5-1.5zm-13-1A2.507 2.507 0 009 21.5c0 1.375 1.125 2.5 2.5 2.5s2.5-1.125 2.5-2.5-1.125-2.5-2.5-2.5zm0 1c.834 0 1.5.666 1.5 1.5s-.666 1.5-1.5 1.5-1.5-.666-1.5-1.5.666-1.5 1.5-1.5zm-5-14C5.678 6 5 6.678 5 7.5v11c0 .822.678 1.5 1.5 1.5h2c.676.01.676-1.01 0-1h-2a.488.488 0 01-.5-.5v-11c0-.286.214-.5.5-.5h13c.286 0 .5.214.5.5V19h-5.5c-.66 0-.648 1.01 0 1h7c.66 0 .654-1 0-1H21v-9h4.227L29 15.896V18.5c0 .286-.214.5-.5.5h-1c-.654 0-.654 1 0 1h1c.822 0 1.5-.678 1.5-1.5v-2.75a.505.505 0 00-.078-.27l-4-6.25A.5.5 0 0025.5 9H21V7.5c0-.822-.678-1.5-1.5-1.5h-13z"/></symbol><symbol id="icon-fb" viewBox="0 0 13 24"><path d="M8.524 15.504c0-.995.806-1.802 1.8-1.802.89 0 1.647-.65 1.781-1.529l.081-.529a1.84 1.84 0 00-1.819-2.118 1.84 1.84 0 01-1.84-1.84v-.87c0-1.142.558-2.256 2.34-2.256.998 0 1.807-.809 1.807-1.806v-.115c0-.942-.683-1.755-1.621-1.837a21.896 21.896 0 00-1.594-.08c-3.28 0-5.424 2-5.424 5.622v1.361a1.82 1.82 0 01-1.82 1.82 1.82 1.82 0 00-1.82 1.821v.534c0 1.006.815 1.822 1.822 1.822 1.006 0 1.822.816 1.822 1.823v6.029a2.243 2.243 0 104.487 0l-.002-6.05z"/></symbol><symbol id="icon-heart" viewBox="0 0 24 24"><path d="M0 0h24v24H0z" fill="none"/><path d="M16.5 3c-1.74 0-3.41.81-4.5 2.09C10.91 3.81 9.24 3 7.5 3 4.42 3 2 5.42 2 8.5c0 3.78 3.4 6.86 8.55 11.54L12 21.35l1.45-1.32C18.6 15.36 22 12.28 22 8.5 22 5.42 19.58 3 16.5 3zm-4.4 15.55l-.1.1-.1-.1C7.14 14.24 4 11.39 4 8.5 4 6.5 5.5 5 7.5 5c1.54 0 3.04.99 3.57 2.36h1.87C13.46 5.99 14.96 5 16.5 5c2 0 3.5 1.5 3.5 3.5 0 2.89-3.14 5.74-7.9 10.05z"/></symbol><symbol id="icon-info" viewBox="0 0 24 24"><path d="M0 0h24v24H0V0z" fill="none"/><path d="M11 7h2v2h-2zm0 4h2v6h-2zm1-9C6.48 2 2 6.48 2 12s4.48 10 10 10 10-4.48 10-10S17.52 2 12 2zm0 18c-4.41 0-8-3.59-8-8s3.59-8 8-8 8 3.59 8 8-3.59 8-8 8z"/></symbol><symbol id="icon-insta" viewBox="0 0 22 22"><path fill-rule="evenodd" clip-rule="evenodd" d="M10.999.86c2.753 0 3.1.012 4.18.062a7.414 7.414 0 012.462.47 5.195 5.195 0 012.965 2.966c.295.786.454 1.616.471 2.456.05 1.08.061 1.427.061 4.18 0 2.754-.01 3.1-.06 4.18a7.415 7.415 0 01-.472 2.462 5.197 5.197 0 01-2.965 2.966 7.412 7.412 0 01-2.456.476c-1.081.05-1.427.061-4.18.061-2.754 0-3.1-.01-4.181-.061a7.412 7.412 0 01-2.461-.47 5.193 5.193 0 01-2.966-2.966 7.414 7.414 0 01-.476-2.456c-.05-1.081-.062-1.427-.062-4.18 0-2.754.012-3.1.062-4.181a7.414 7.414 0 01.47-2.461 5.194 5.194 0 012.966-2.972 7.414 7.414 0 012.456-.47C7.899.872 8.245.86 10.999.86zm4.093 1.887c-1.068-.049-1.39-.06-4.093-.06-2.703 0-3.029.011-4.093.06a5.63 5.63 0 00-1.887.346A3.362 3.362 0 003.092 5.02a5.63 5.63 0 00-.348 1.883c-.048 1.068-.06 1.39-.06 4.093 0 2.703.012 3.029.06 4.093a5.63 5.63 0 00.348 1.89 3.362 3.362 0 001.927 1.928 5.63 5.63 0 001.883.348c1.068.048 1.39.06 4.093.06 2.703 0 3.029-.012 4.093-.06a5.631 5.631 0 001.89-.348 3.363 3.363 0 001.928-1.928 5.63 5.63 0 00.348-1.882c.048-1.068.06-1.39.06-4.093 0-2.704-.012-3.03-.06-4.093a5.632 5.632 0 00-.348-1.89 3.363 3.363 0 00-1.928-1.928 5.63 5.63 0 00-1.882-.346h-.004zM10.999 14.38a3.38 3.38 0 100-6.76 3.38 3.38 0 000 6.76zm0-8.588a5.209 5.209 0 110 10.418 5.209 5.209 0 010-10.418zm6.629-.204a1.217 1.217 0 11-2.434 0 1.217 1.217 0 012.434 0z"/></symbol><symbol id="icon-map" viewBox="0 0 24 24"><path d="M0 0h24v24H0z" fill="none"/><path d="M12 4c1.93 0 5 1.4 5 5.15 0 2.16-1.72 4.67-5 7.32-3.28-2.65-5-5.17-5-7.32C7 5.4 10.07 4 12 4m0-2C8.73 2 5 4.46 5 9.15c0 3.12 2.33 6.41 7 9.85 4.67-3.44 7-6.73 7-9.85C19 4.46 15.27 2 12 2z"/><path d="M12 7c-1.1 0-2 .9-2 2s.9 2 2 2a2 2 0 100-4zM5 20h14v2H5v-2z"/></symbol><symbol id="icon-minus" viewBox="0 0 24 24"><path d="M0 0h24v24H0z" fill="none"/><path d="M19 13H5v-2h14v2z"/></symbol><symbol id="icon-phone" viewBox="0 0 24 24"><path d="M0 0h24v24H0z" fill="none"/><path d="M15.5 1h-8A2.5 2.5 0 005 3.5v17A2.5 2.5 0 007.5 23h8a2.5 2.5 0 002.5-2.5v-17A2.5 2.5 0 0015.5 1zm-4 21c-.83 0-1.5-.67-1.5-1.5s.67-1.5 1.5-1.5 1.5.67 1.5 1.5-.67 1.5-1.5 1.5zm4.5-4H7V4h9v14z"/></symbol><symbol id="icon-plus" viewBox="0 0 24 24"><path d="M0 0h24v24H0z" fill="none"/><path d="M19 13h-6v6h-2v-6H5v-2h6V5h2v6h6v2z"/></symbol><symbol id="icon-search" viewBox="0 0 24 24"><path d="M0 0h24v24H0z" fill="none"/><path d="M15.5 14h-.79l-.28-.27A6.471 6.471 0 0016 9.5 6.5 6.5 0 109.5 16c1.61 0 3.09-.59 4.23-1.57l.27.28v.79l5 4.99L20.49 19l-4.99-5zm-6 0C7.01 14 5 11.99 5 9.5S7.01 5 9.5 5 14 7.01 14 9.5 11.99 14 9.5 14z"/></symbol><symbol id="icon-slider-arr" viewBox="0 0 32 44"><path d="M.5.125h8.75L31.125 22 9.25 43.875H.5L22.375 22 .5.125z" fill="#58267E"/></symbol><symbol id="icon-star" viewBox="0 0 24 24"><path d="M0 0h24v24H0z" fill="none"/><path d="M12 17.27L18.18 21l-1.64-7.03L22 9.24l-7.19-.61L12 2 9.19 8.63 2 9.24l5.46 4.73L5.82 21z"/></symbol><symbol id="icon-tg" viewBox="0 0 23 19"><path fill-rule="evenodd" clip-rule="evenodd" d="M2.176 8.656C7.992 6.122 11.87 4.45 13.81 3.644 19.35 1.34 20.508.94 21.252.926a1.32 1.32 0 01.774.232c.16.138.261.33.285.54.04.26.05.524.033.787-.3 3.162-1.6 10.807-2.26 14.34-.28 1.489-.83 1.996-1.364 2.047-1.157.106-2.047-.767-3.163-1.502-1.756-1.151-2.748-1.86-4.452-2.991-1.97-1.303-.692-2.012.43-3.176.294-.305 5.395-4.95 5.495-5.37a.406.406 0 00-.093-.353.463.463 0 00-.413-.04c-.175.04-2.979 1.893-8.413 5.562-.796.547-1.517.813-2.163.8-.713-.017-2.082-.404-3.102-.744-1.248-.406-2.232-.62-2.154-1.303.046-.357.54-.723 1.484-1.1z"/></symbol><symbol id="icon-user" viewBox="0 0 24 24"><path d="M0 0h24v24H0V0z" fill="none"/><path d="M12 2C6.48 2 2 6.48 2 12s4.48 10 10 10 10-4.48 10-10S17.52 2 12 2zM7.07 18.28c.43-.9 3.05-1.78 4.93-1.78s4.51.88 4.93 1.78C15.57 19.36 13.86 20 12 20s-3.57-.64-4.93-1.72zm11.29-1.45c-1.43-1.74-4.9-2.33-6.36-2.33s-4.93.59-6.36 2.33A7.95 7.95 0 014 12c0-4.41 3.59-8 8-8s8 3.59 8 8c0 1.82-.62 3.49-1.64 4.83zM12 6c-1.94 0-3.5 1.56-3.5 3.5S10.06 13 12 13s3.5-1.56 3.5-3.5S13.94 6 12 6zm0 5c-.83 0-1.5-.67-1.5-1.5S11.17 8 12 8s1.5.67 1.5 1.5S12.83 11 12 11z"/></symbol><symbol id="icon-whatsapp" viewBox="0 0 21 21"><path d="M.215 20.954l1.404-5.128a9.894 9.894 0 118.575 4.956 9.894 9.894 0 01-4.727-1.205L.215 20.954zm5.488-3.163l.302.186a8.226 8.226 0 108.17-14.278A8.227 8.227 0 003.223 15.27l.186.31-.831 3.035 3.125-.824z"/><path fill-rule="evenodd" clip-rule="evenodd" d="M15.177 13.24c-.061-.104-.227-.165-.474-.288-.248-.123-1.462-.722-1.69-.806-.226-.084-.39-.123-.558.125-.167.247-.638.804-.781.97-.143.165-.29.185-.536.06a6.757 6.757 0 01-1.977-1.226 7.44 7.44 0 01-1.375-1.713c-.145-.247-.017-.372.108-.504.124-.132.247-.29.372-.434.102-.124.185-.264.247-.413a.46.46 0 00-.02-.433c-.062-.123-.559-1.34-.763-1.835-.205-.494-.404-.416-.558-.426-.155-.009-.31 0-.473 0a.91.91 0 00-.67.311 2.774 2.774 0 00-.865 2.047c0 1.216.886 2.392 1.01 2.558.125.165 1.744 2.662 4.224 3.732.46.199.93.372 1.41.52a3.398 3.398 0 001.557.1c.475-.071 1.463-.6 1.675-1.177.212-.576.199-1.066.137-1.168z"/></symbol></svg>