<svg width="40" height="40" viewBox="0 0 40 40" fill="none" xmlns="http://www.w3.org/2000/svg">
<path d="M28.35 25.5C28.9167 24.6667 29.3333 23.7833 29.6 22.85C29.8667 21.9167 30 20.9667 30 20C30 18.7333 29.7583 17.475 29.275 16.225C28.7917 14.975 28.0667 13.8667 27.1 12.9C26.1333 11.9333 25.0417 11.2167 23.825 10.75C22.6083 10.2833 21.3667 10.05 20.1 10.05L22 8.1L19.9 6L14.2 11.65L19.9 17.3L22 15.2L19.8 13C20.7 13 21.6167 13.175 22.55 13.525C23.4833 13.875 24.2833 14.3833 24.95 15.05C25.6167 15.7167 26.125 16.4833 26.475 17.35C26.825 18.2167 27 19.0833 27 19.95C27 20.5167 26.925 21.0833 26.775 21.65C26.625 22.2167 26.4167 22.7667 26.15 23.3L28.35 25.5ZM20.1 34L25.8 28.35L20.1 22.7L18 24.8L20.15 26.95C19.2167 26.9833 18.3083 26.8333 17.425 26.5C16.5417 26.1667 15.75 25.65 15.05 24.95C14.3833 24.2833 13.875 23.5167 13.525 22.65C13.175 21.7833 13 20.9167 13 20.05C13 19.4833 13.075 18.9167 13.225 18.35C13.375 17.7833 13.5833 17.2333 13.85 16.7L11.65 14.5C11.0833 15.3333 10.6667 16.2167 10.4 17.15C10.1333 18.0833 10 19.0333 10 20C10 21.2667 10.25 22.5167 10.75 23.75C11.25 24.9833 11.9833 26.0833 12.95 27.05C13.9167 28.0167 15 28.7417 16.2 29.225C17.4 29.7083 18.6333 29.9667 19.9 30L18 31.9L20.1 34ZM20 40C17.1667 40 14.5333 39.4917 12.1 38.475C9.66667 37.4583 7.55 36.05 5.75 34.25C3.95 32.45 2.54167 30.3333 1.525 27.9C0.508333 25.4667 0 22.8333 0 20C0 17.2 0.508333 14.5833 1.525 12.15C2.54167 9.71667 3.95 7.6 5.75 5.8C7.55 4 9.66667 2.58333 12.1 1.55C14.5333 0.516667 17.1667 0 20 0C22.8 0 25.4167 0.516667 27.85 1.55C30.2833 2.58333 32.4 4 34.2 5.8C36 7.6 37.4167 9.71667 38.45 12.15C39.4833 14.5833 40 17.2 40 20C40 22.8333 39.4833 25.4667 38.45 27.9C37.4167 30.3333 36 32.45 34.2 34.25C32.4 36.05 30.2833 37.4583 27.85 38.475C25.4167 39.4917 22.8 40 20 40ZM20 37C24.8333 37 28.875 35.375 32.125 32.125C35.375 28.875 37 24.8333 37 20C37 15.1667 35.375 11.125 32.125 7.875C28.875 4.625 24.8333 3 20 3C15.1667 3 11.125 4.625 7.875 7.875C4.625 11.125 3 15.1667 3 20C3 24.8333 4.625 28.875 7.875 32.125C11.125 35.375 15.1667 37 20 37Z"/>
</svg>
