<svg width="22" height="22" viewBox="0 0 22 22" fill="none" xmlns="http://www.w3.org/2000/svg">
<path fill-rule="evenodd" clip-rule="evenodd" d="M10.9989 0.860352C13.7524 0.860352 14.0984 0.871515 15.1794 0.921747C16.0206 0.937842 16.853 1.09701 17.6408 1.39244C18.3141 1.65347 18.9255 2.05201 19.4362 2.56263C19.9468 3.07325 20.3453 3.68473 20.6064 4.35803C20.9012 5.14408 21.0603 5.97449 21.0771 6.81384C21.1273 7.89477 21.1384 8.24082 21.1384 10.9943C21.1384 13.7478 21.1273 14.0938 21.0771 15.1748C21.061 16.016 20.9018 16.8484 20.6064 17.6362C20.3453 18.3095 19.9468 18.9209 19.4362 19.4316C18.9255 19.9422 18.3141 20.3407 17.6408 20.6017C16.8551 20.8985 16.0246 21.0595 15.185 21.078C14.104 21.1283 13.758 21.1394 11.0045 21.1394C8.251 21.1394 7.90496 21.1283 6.82403 21.078C5.9828 21.0619 5.15044 20.9028 4.36263 20.6073C3.68933 20.3463 3.07785 19.9478 2.56724 19.4371C2.05662 18.9265 1.65808 18.315 1.39705 17.6417C1.10034 16.856 0.93928 16.0256 0.920768 15.1859C0.870535 14.105 0.859375 13.759 0.859375 11.0055C0.859375 8.25198 0.870535 7.90593 0.920768 6.825C0.936863 5.98377 1.09604 5.15142 1.39147 4.36361C1.65184 3.68928 2.05009 3.07671 2.56075 2.5651C3.0714 2.05349 3.68321 1.65409 4.35705 1.39244C5.1431 1.09764 5.97351 0.938473 6.81286 0.921747C7.89938 0.871515 8.24542 0.860352 10.9989 0.860352ZM15.0919 2.74686C14.024 2.69849 13.7022 2.68733 10.9989 2.68733C8.29566 2.68733 7.97007 2.69849 6.90589 2.74686C6.26189 2.75346 5.62379 2.8705 5.01937 3.09291C4.58133 3.26179 4.18351 3.52055 3.85155 3.85252C3.51958 4.18449 3.26082 4.58231 3.09193 5.02035C2.86931 5.62348 2.75164 6.26028 2.74403 6.90314C2.69566 7.97105 2.68449 8.29291 2.68449 10.9962C2.68449 13.6994 2.69566 14.025 2.74403 15.0892C2.75079 15.7345 2.86847 16.3739 3.09193 16.9794C3.26082 17.4175 3.51958 17.8153 3.85155 18.1473C4.18351 18.4792 4.58133 18.738 5.01937 18.9069C5.6225 19.1295 6.25931 19.2472 6.90217 19.2548C7.97008 19.3031 8.29194 19.3143 10.9952 19.3143C13.6984 19.3143 14.024 19.3031 15.0882 19.2548C15.7336 19.248 16.373 19.1303 16.9784 18.9069C17.4165 18.738 17.8143 18.4792 18.1463 18.1473C18.4782 17.8153 18.737 17.4175 18.9059 16.9794C19.1285 16.3763 19.2462 15.7395 19.2538 15.0966C19.3022 14.0287 19.3133 13.7069 19.3133 11.0036C19.3133 8.30035 19.3022 7.97477 19.2538 6.91058C19.247 6.26522 19.1293 5.62583 18.9059 5.02035C18.737 4.58231 18.4782 4.18449 18.1463 3.85252C17.8143 3.52055 17.4165 3.26179 16.9784 3.09291C16.3752 2.87092 15.7384 2.75388 15.0957 2.74686H15.0919ZM10.9989 14.3804C11.6675 14.3804 12.3211 14.1821 12.877 13.8106C13.4329 13.4392 13.8662 12.9112 14.1221 12.2935C14.3779 11.6758 14.4449 10.9961 14.3144 10.3404C14.184 9.68464 13.862 9.0823 13.3893 8.60954C12.9165 8.13677 12.3142 7.81481 11.6584 7.68438C11.0027 7.55394 10.323 7.62088 9.70526 7.87674C9.08756 8.1326 8.55961 8.56589 8.18816 9.1218C7.81671 9.67771 7.61844 10.3313 7.61844 10.9999C7.61894 11.8963 7.97525 12.7558 8.6091 13.3897C9.24296 14.0235 10.1025 14.3799 10.9989 14.3804ZM10.9989 5.79244C12.0292 5.79244 13.0364 6.09796 13.893 6.67037C14.7497 7.24278 15.4174 8.05636 15.8117 9.00823C16.206 9.96011 16.3091 11.0075 16.1081 12.018C15.9071 13.0285 15.411 13.9567 14.6824 14.6853C13.9539 15.4138 13.0257 15.91 12.0152 16.111C11.0047 16.312 9.95727 16.2088 9.00539 15.8145C8.05352 15.4202 7.23994 14.7525 6.66753 13.8959C6.09513 13.0392 5.78961 12.032 5.78961 11.0017C5.78961 9.62015 6.33845 8.29515 7.31538 7.31821C8.29231 6.34128 9.61732 5.79244 10.9989 5.79244ZM17.6277 5.58779C17.6277 5.82844 17.5564 6.06369 17.4227 6.26378C17.289 6.46387 17.099 6.61983 16.8766 6.71192C16.6543 6.80401 16.4097 6.82811 16.1736 6.78116C15.9376 6.73421 15.7208 6.61833 15.5506 6.44816C15.3805 6.278 15.2646 6.06119 15.2176 5.82517C15.1707 5.58914 15.1948 5.3445 15.2869 5.12217C15.379 4.89983 15.5349 4.70981 15.735 4.57611C15.9351 4.44241 16.1704 4.37105 16.411 4.37105C16.7337 4.37105 17.0432 4.49924 17.2714 4.72743C17.4996 4.95561 17.6277 5.26509 17.6277 5.58779Z" />
</svg>
