<svg width="13" height="24" viewBox="0 0 13 24" fill="none" xmlns="http://www.w3.org/2000/svg">
<path d="M8.52356 15.5043C8.52319 14.5092 9.32974 13.7024 10.3248 13.7024C11.2145 13.7024 11.971 13.0527 12.1054 12.1732L12.1862 11.644C12.3565 10.5297 11.4941 9.52565 10.367 9.52565C9.35058 9.52565 8.52662 8.70169 8.52662 7.68528V6.81681C8.52662 5.67448 9.08477 4.56006 10.8671 4.56006C11.8648 4.56006 12.6736 3.75127 12.6736 2.75356V2.63853C12.6736 1.69656 11.9912 0.884119 11.0527 0.802381C10.5227 0.756216 9.99104 0.729366 9.45871 0.721924C6.17871 0.721924 4.03545 2.72192 4.03545 6.34425V7.70519C4.03545 8.7106 3.2204 9.52565 2.21499 9.52565C1.20958 9.52565 0.394531 10.3407 0.394531 11.3461V11.8801C0.394531 12.8865 1.21041 13.7024 2.21685 13.7024C3.22329 13.7024 4.03918 14.5183 4.03918 15.5247V21.554C4.03918 22.7929 5.04354 23.7973 6.28248 23.7973C7.52175 23.7973 8.52625 22.7924 8.52579 21.5531L8.52356 15.5043Z"/>
</svg>
