<svg width="36" height="36" viewBox="0 0 36 36" fill="none" xmlns="http://www.w3.org/2000/svg">
<path d="M26.3808 23.5463C26.0673 23.2316 25.6947 22.982 25.2845 22.8116C24.8742 22.6413 24.4344 22.5536 23.9902 22.5536C23.546 22.5536 23.1062 22.6413 22.6959 22.8116C22.2857 22.982 21.9131 23.2316 21.5996 23.5463L19.9683 25.1775C18.1317 24.0119 16.43 22.646 14.8946 21.105C13.3568 19.5667 11.9913 17.8654 10.8221 16.0313L12.4533 14.4C12.768 14.0865 13.0176 13.7139 13.188 13.3037C13.3583 12.8934 13.446 12.4536 13.446 12.0094C13.446 11.5652 13.3583 11.1254 13.188 10.7151C13.0176 10.3049 12.768 9.93233 12.4533 9.61878L9.26957 6.44628C8.96045 6.1306 8.59102 5.88029 8.18324 5.71022C7.77545 5.54014 7.33764 5.45379 6.89582 5.45628C6.45086 5.45519 6.01008 5.5421 5.59884 5.712C5.1876 5.88191 4.81401 6.13145 4.49957 6.44628L2.96957 7.96503C2.24031 8.74912 1.69604 9.68667 1.37676 10.7088C1.05748 11.7309 0.971303 12.8115 1.12457 13.8713C1.48457 18.09 4.25207 23.1638 8.51582 27.4388C12.7796 31.7138 17.9096 34.47 22.1283 34.875C22.4431 34.8919 22.7585 34.8919 23.0733 34.875C23.9815 34.9132 24.8881 34.7696 25.74 34.4528C26.5919 34.136 27.372 33.6523 28.0346 33.03L29.5533 31.5C29.8682 31.1856 30.1177 30.812 30.2876 30.4008C30.4575 29.9895 30.5444 29.5487 30.5433 29.1038C30.5458 28.662 30.4595 28.2242 30.2894 27.8164C30.1193 27.4086 29.869 27.0392 29.5533 26.73L26.3808 23.5463ZM27.9671 29.9138L26.4371 31.4325C25.8714 31.904 25.211 32.2484 24.5006 32.4425C23.7902 32.6366 23.0464 32.6758 22.3196 32.5575C18.6633 32.2425 14.0058 29.655 10.1583 25.8075C6.31082 21.96 3.72332 17.3363 3.37457 13.68C3.25325 12.9532 3.291 12.2087 3.48522 11.4978C3.67945 10.787 4.02551 10.1267 4.49957 9.56253L6.08582 8.03253C6.19094 7.92827 6.31561 7.84578 6.45268 7.78979C6.58975 7.73381 6.73652 7.70543 6.88457 7.70628C7.03263 7.70543 7.1794 7.73381 7.31647 7.78979C7.45354 7.84578 7.5782 7.92827 7.68332 8.03253L10.8671 11.25C11.0766 11.4608 11.1942 11.7459 11.1942 12.0432C11.1942 12.3404 11.0766 12.6255 10.8671 12.8363L8.61707 15.0863C8.44101 15.2615 8.32787 15.49 8.29531 15.7363C8.26275 15.9825 8.3126 16.2326 8.43707 16.4475C9.78414 18.7408 11.4214 20.8507 13.3083 22.725C15.1827 24.612 17.2926 26.2492 19.5858 27.5963C19.8008 27.7208 20.0509 27.7706 20.2971 27.738C20.5433 27.7055 20.7719 27.5923 20.9471 27.4163L23.1971 25.1663C23.4079 24.9568 23.693 24.8391 23.9902 24.8391C24.2874 24.8391 24.5725 24.9568 24.7833 25.1663L27.9671 28.35C28.0713 28.4552 28.1538 28.5798 28.2098 28.7169C28.2658 28.854 28.2942 29.0007 28.2933 29.1488C28.2863 29.4361 28.1695 29.7098 27.9671 29.9138ZM29.9246 6.06378C28.3611 4.49438 26.5025 3.24998 24.4558 2.40234C22.4091 1.5547 20.2148 1.12059 17.9996 1.12503C17.7012 1.12503 17.4151 1.24356 17.2041 1.45454C16.9931 1.66552 16.8746 1.95167 16.8746 2.25003C16.8746 2.5484 16.9931 2.83455 17.2041 3.04553C17.4151 3.25651 17.7012 3.37503 17.9996 3.37503C19.9306 3.37496 21.8425 3.75731 23.625 4.50001C25.4075 5.24271 27.0253 6.33106 28.385 7.70226C29.7447 9.07345 30.8194 10.7003 31.547 12.489C32.2747 14.2777 32.6409 16.1928 32.6246 18.1238C32.6246 18.4222 32.7431 18.7083 32.9541 18.9193C33.1651 19.1303 33.4512 19.2488 33.7496 19.2488C34.0479 19.2488 34.3341 19.1303 34.5451 18.9193C34.756 18.7083 34.8746 18.4222 34.8746 18.1238C34.8961 15.885 34.4692 13.6645 33.6191 11.5932C32.769 9.52198 31.5128 7.64189 29.9246 6.06378Z" fill="#488A99"/>
<path d="M23.5244 12.4987C24.1628 13.1333 24.6679 13.8892 25.0099 14.7219C25.3518 15.5546 25.5238 16.4473 25.5156 17.3475C25.5156 17.6459 25.6341 17.932 25.8451 18.143C26.0561 18.354 26.3423 18.4725 26.6406 18.4725C26.939 18.4725 27.2251 18.354 27.4361 18.143C27.6471 17.932 27.7656 17.6459 27.7656 17.3475C27.7805 16.1562 27.5587 14.9737 27.1131 13.8688C26.6675 12.7638 26.0069 11.7584 25.1697 10.9107C24.3325 10.063 23.3353 9.38998 22.236 8.93067C21.1366 8.47136 19.957 8.23489 18.7656 8.23499C18.4673 8.23499 18.1811 8.35351 17.9701 8.56449C17.7592 8.77547 17.6406 9.06162 17.6406 9.35998C17.6406 9.65835 17.7592 9.9445 17.9701 10.1555C18.1811 10.3665 18.4673 10.485 18.7656 10.485C19.6522 10.4917 20.5288 10.6729 21.3453 11.0185C22.1618 11.364 22.9023 11.867 23.5244 12.4987Z"/>
</svg>
