<svg width="30" height="30" viewBox="0 0 30 30" fill="none" xmlns="http://www.w3.org/2000/svg">
<path d="M24.0762 10.9336C24.0762 10.9277 24.0762 10.9219 24.0703 10.9219C24.0703 10.9102 24.0645 10.9043 24.0645 10.8926C24.0645 10.8867 24.0586 10.875 24.0586 10.8691C24.0586 10.8633 24.0527 10.8574 24.0527 10.8516C24.041 10.8223 24.0293 10.7988 24.0117 10.7754L20.2031 5.17969C20.1211 5.05664 19.9863 4.98633 19.8398 4.98633H16.1133H13.8926H10.166C10.0195 4.98633 9.88477 5.05664 9.80273 5.17969L5.99414 10.7754C5.97656 10.7988 5.96484 10.8281 5.95312 10.8516C5.95312 10.8574 5.94727 10.8633 5.94727 10.8691C5.94141 10.875 5.94141 10.8867 5.94141 10.8926C5.94141 10.9043 5.93555 10.9102 5.93555 10.9219C5.93555 10.9277 5.93555 10.9336 5.92969 10.9336C5.92383 10.9629 5.91797 10.9922 5.91797 11.0215V24.5742C5.91797 24.8145 6.11719 25.0137 6.35742 25.0137H23.6484C23.8887 25.0137 24.0879 24.8145 24.0879 24.5742V11.0215C24.082 10.9922 24.082 10.9629 24.0762 10.9336ZM22.8105 10.582H17.1328L16.5996 5.86523H19.5996L22.8105 10.582ZM13.6934 11.4609H16.3008V14.6836L15.252 13.9453C15.1758 13.8926 15.0879 13.8633 15 13.8633C14.9121 13.8633 14.8242 13.8926 14.748 13.9453L13.6992 14.6836V11.4609H13.6934ZM15.7148 5.86523L16.248 10.582H13.7461L14.2793 5.86523H15.7148ZM10.4004 5.86523H13.4004L12.8672 10.582H7.18945L10.4004 5.86523ZM23.2031 24.1348H6.79688V11.4609H12.8203V15.5273C12.8203 15.6914 12.9141 15.8438 13.0547 15.9199C13.2012 15.9961 13.377 15.9844 13.5117 15.8906L15 14.8418L16.4883 15.8906C16.5645 15.9434 16.6523 15.9727 16.7402 15.9727C16.8105 15.9727 16.8809 15.9551 16.9453 15.9258C17.0918 15.8496 17.1797 15.6973 17.1797 15.5332V11.4668H23.2031V24.1348Z" fill="black"/>
<path d="M11.7773 19.3594H8.66016C8.41992 19.3594 8.2207 19.5586 8.2207 19.7988C8.2207 20.0391 8.41992 20.2383 8.66016 20.2383H11.7773C12.0176 20.2383 12.2168 20.0391 12.2168 19.7988C12.2168 19.5586 12.0176 19.3594 11.7773 19.3594Z" fill="black"/>
<path d="M10.2187 21.2051H8.66016C8.41992 21.2051 8.2207 21.4043 8.2207 21.6445C8.2207 21.8848 8.41992 22.084 8.66016 22.084H10.2187C10.459 22.084 10.6582 21.8848 10.6582 21.6445C10.6582 21.4043 10.459 21.2051 10.2187 21.2051Z" fill="black"/>
</svg>
