<svg width="24" height="19" viewBox="0 0 24 19" fill="none" xmlns="http://www.w3.org/2000/svg">
<path d="M21.6656 0.689941L12.0422 0.713379L2.41875 0.666504H2.41406C1.12031 0.666504 0.09375 1.88057 0.09375 3.39932V16.1212C0.09375 17.6399 1.12031 18.854 2.41406 18.854H21.6797C22.9734 18.854 24 17.6399 24 16.1212V3.39932C24 1.88057 22.9828 0.689941 21.6656 0.689941ZM20.9109 2.56494L12.3141 10.4259L12.2812 10.454L12.2531 10.4868C12.15 10.5993 12.0281 10.6134 11.9625 10.6134C11.8969 10.6134 11.775 10.5946 11.6766 10.4774L11.6484 10.4446L3.43125 2.52744L12.0422 2.58369L20.9109 2.56494ZM21.6797 16.979H2.41406C2.25 16.979 1.96875 16.6696 1.96875 16.1212V3.69932L10.2938 11.7431C10.7156 12.2118 11.3109 12.4837 11.9438 12.4931H11.9719C12.5953 12.4931 13.1766 12.2353 13.6031 11.7853L22.1344 3.97588V16.1212C22.125 16.6696 21.8438 16.979 21.6797 16.979Z"/>
</svg>
