<svg width="100" height="100" viewBox="0 0 100 100" fill="none" xmlns="http://www.w3.org/2000/svg">
<g clip-path="url(#clip0_461_54)">
<path fill-rule="evenodd" clip-rule="evenodd" d="M29.6875 37.2882H6.09375C1.71875 37.2882 1.5625 40.8475 1.5625 45.4238V86.6102C1.5625 91.017 1.71875 94.7458 6.09375 94.7458H29.6875C34.0625 94.7458 34.2187 91.1865 34.2187 86.6102V45.4238C34.2187 41.017 34.0625 37.2882 29.6875 37.2882Z" stroke="#488A99" stroke-width="5"/>
<path d="M33.9062 88.6441H36.0937C42.0312 88.4746 45.9375 98.3051 50.4687 98.3051H85.7813C90.1563 98.3051 91.0938 91.1865 90.9375 88.1356C90.9375 88.1356 96.4062 85.4238 93.9062 74.5763C94.2187 74.4068 97.0312 71.5255 97.0312 65.9322C97.0312 60.339 94.0625 57.6272 94.0625 57.6272C94.0625 57.6272 97.0312 54.0678 97.0312 48.8136C97.0312 43.5594 92.8125 40.678 88.4375 40.678H75.4687C64.2187 40.678 65.1562 34.0678 65.1562 34.0678C65.1562 34.0678 63.9062 16.9492 59.8437 8.98309C54.8437 -0.847419 44.8437 2.37292 48.5937 15.2543C51.4062 24.7458 38.75 38.9831 34.0625 43.7289" stroke="#488A99" stroke-width="5"/>
</g>
<defs>
<clipPath id="clip0_461_54">
<rect width="100" height="100" fill="white"/>
</clipPath>
</defs>
</svg>
