<svg width="21" height="21" viewBox="0 0 21 21" fill="none" xmlns="http://www.w3.org/2000/svg">
<path d="M0.214844 20.9537L1.6195 15.8263C0.532806 13.9393 0.0989463 11.7466 0.385186 9.588C0.671425 7.4294 1.66176 5.42552 3.20269 3.88702C4.74362 2.34851 6.74906 1.36131 8.9081 1.07847C11.0671 0.795622 13.2592 1.23293 15.1444 2.32259C17.0297 3.41225 18.5028 5.09341 19.3354 7.10543C20.168 9.11745 20.3136 11.3479 19.7496 13.4511C19.1856 15.5543 17.9436 17.4127 16.216 18.7382C14.4885 20.0637 12.3719 20.7823 10.1944 20.7825C8.54264 20.7816 6.91742 20.3671 5.46694 19.577L0.214844 20.9537ZM5.70321 17.7909L6.00462 17.977C7.27201 18.7275 8.7177 19.124 10.1907 19.1249C12.0147 19.1252 13.7871 18.5194 15.2293 17.4026C16.6715 16.2859 17.7016 14.7215 18.1578 12.9554C18.614 11.1893 18.4703 9.32173 17.7494 7.64622C17.0284 5.97071 15.7711 4.5823 14.1751 3.69926C12.579 2.81622 10.7348 2.48862 8.9323 2.76798C7.12978 3.04734 5.47122 3.9178 4.21735 5.24253C2.96348 6.56725 2.1854 8.27111 2.00545 10.0862C1.8255 11.9014 2.25387 13.7249 3.22322 15.27L3.40927 15.5807L2.57764 18.6151L5.70321 17.7909Z" />
<path fill-rule="evenodd" clip-rule="evenodd" d="M15.1773 13.2402C15.1159 13.136 14.9503 13.0746 14.7029 12.9518C14.4554 12.829 13.2405 12.2299 13.0136 12.1462C12.7866 12.0625 12.6229 12.0234 12.4554 12.2709C12.288 12.5183 11.8173 13.0746 11.674 13.2402C11.5308 13.4057 11.3838 13.4262 11.1382 13.3016C10.413 13.0103 9.74389 12.5955 9.16054 12.0755C8.62 11.5755 8.15666 10.9981 7.78565 10.362C7.64054 10.1146 7.76891 9.98993 7.89356 9.85783C8.01822 9.72574 8.14101 9.5676 8.26566 9.42434C8.36795 9.29955 8.45133 9.16039 8.5131 9.01132C8.54567 8.94297 8.56083 8.86763 8.55726 8.79201C8.55369 8.71638 8.53149 8.64281 8.49263 8.57783C8.43123 8.45504 7.93449 7.2383 7.72984 6.74341C7.52519 6.24853 7.32612 6.32667 7.1717 6.31737C7.01728 6.30806 6.86287 6.31737 6.69915 6.31737C6.572 6.31947 6.44669 6.3482 6.33133 6.40172C6.21596 6.45523 6.1131 6.53234 6.02938 6.62806C5.75192 6.89114 5.53185 7.20874 5.38297 7.56092C5.23409 7.9131 5.15964 8.29225 5.16427 8.67458C5.16427 9.89132 6.04985 11.0671 6.1745 11.2327C6.29915 11.3983 7.91776 13.895 10.3978 14.9648C10.8582 15.1635 11.3289 15.3374 11.808 15.4857C12.3124 15.6389 12.8455 15.6727 13.3652 15.5843C13.8396 15.5136 14.8275 14.9853 15.0396 14.4085C15.2517 13.8318 15.2387 13.3425 15.1773 13.2402Z"/>
</svg>
