<svg width="23" height="19" viewBox="0 0 23 19" fill="none" xmlns="http://www.w3.org/2000/svg">
<path fill-rule="evenodd" clip-rule="evenodd" d="M2.1765 8.65578C7.99231 6.12182 11.8701 4.45112 13.81 3.64368C19.3505 1.34043 20.5077 0.940426 21.2519 0.925542C21.5278 0.920178 21.7985 1.00152 22.0258 1.1581C22.1853 1.29563 22.287 1.48834 22.3105 1.69764C22.3505 1.95793 22.3618 2.22185 22.3439 2.48461C22.0444 5.6474 20.7439 13.2921 20.0835 16.8251C19.8044 18.3135 19.2537 18.8214 18.7198 18.8716C17.5625 18.9776 16.6732 18.1051 15.557 17.3702C13.8007 16.2186 12.8091 15.5097 11.1049 14.3786C9.13464 13.0762 10.4128 12.3674 11.5346 11.2028C11.8286 10.8976 16.93 6.25392 17.0305 5.83345C17.0437 5.77136 17.0422 5.70703 17.026 5.64563C17.0099 5.58424 16.9795 5.52749 16.9374 5.47996C16.8764 5.44179 16.8072 5.41839 16.7355 5.41161C16.6638 5.40483 16.5915 5.41485 16.5244 5.44089C16.3495 5.47934 13.5452 7.33299 8.11139 11.0018C7.31511 11.5488 6.59387 11.8155 5.94767 11.8018C5.23511 11.7851 3.8658 11.3981 2.84626 11.0576C1.59789 10.6521 0.613712 10.4381 0.691851 9.75531C0.737743 9.3981 1.23262 9.03159 2.1765 8.65578Z" />
</svg>
