<svg width="1921" height="62" viewBox="0 0 1921 62" fill="none" xmlns="http://www.w3.org/2000/svg">
<path d="M0 13.7778L53.3611 12.6368C106.722 11.4097 213.444 9.25694 320.167 16.0812C426.889 23.0347 533.611 38.9653 640.333 37.8889C747.056 36.8125 853.778 18.2986 960.5 9.19236C1067.22 -8.2122e-07 1173.94 -8.2122e-07 1280.67 9.19236C1387.39 18.2986 1494.11 36.8125 1600.83 36.7479C1707.56 36.8125 1814.28 18.2986 1867.64 9.19236L1921 0V62H1867.64C1814.28 62 1707.56 62 1600.83 62C1494.11 62 1387.39 62 1280.67 62C1173.94 62 1067.22 62 960.5 62C853.778 62 747.056 62 640.333 62C533.611 62 426.889 62 320.167 62C213.444 62 106.722 62 53.3611 62H0V13.7778Z" fill="#F1E7B2" fill-opacity="0.55"/>
</svg>
