<svg width="150" height="40" viewBox="0 0 150 40" fill="none" xmlns="http://www.w3.org/2000/svg">
<path fill-rule="evenodd" clip-rule="evenodd" d="M150 0H0V40H150V0ZM57.8731 16.3229C58.3651 16.3953 58.7822 16.7469 58.936 17.2192C59.0905 17.6911 58.9599 18.2209 58.6033 18.5684L54.7563 22.3183L55.6644 27.6125C55.7488 28.1016 55.5434 28.607 55.1409 28.8997C54.915 29.064 54.6474 29.1509 54.3668 29.1509C54.1541 29.1509 53.9425 29.0988 53.7549 29.0001L49.0004 26.5005L44.2458 29.0001C44.058 29.0987 43.8462 29.1509 43.6333 29.1509C43.3524 29.1509 43.0847 29.064 42.8587 28.8997C42.4562 28.6074 42.251 28.1018 42.336 27.612L43.243 22.3183L39.3967 18.5683C39.0409 18.2219 38.9099 17.6923 39.0632 17.2194C39.2174 16.7468 39.6343 16.3951 40.1256 16.3231L45.4425 15.5509L47.8191 10.7344C48.0389 10.2883 48.5026 10 49.0004 10C49.4977 10 49.9607 10.2884 50.1801 10.7346L52.5572 15.5509L57.8731 16.3229ZM84.936 17.2192C84.7822 16.7469 84.3651 16.3953 83.8731 16.3229L78.5572 15.5509L76.1801 10.7346C75.9607 10.2884 75.4977 10 75.0004 10C74.5026 10 74.0389 10.2883 73.8191 10.7344L71.4425 15.5509L66.1256 16.3231C65.6343 16.3951 65.2174 16.7468 65.0632 17.2194C64.9099 17.6923 65.0409 18.2219 65.3967 18.5683L69.243 22.3183L68.336 27.612C68.251 28.1018 68.4562 28.6074 68.8587 28.8997C69.0846 29.064 69.3524 29.1509 69.6333 29.1509C69.8462 29.1509 70.058 29.0987 70.2458 29.0001L75.0004 26.5005L79.7549 29.0001C79.9425 29.0988 80.1541 29.1509 80.3668 29.1509C80.6474 29.1509 80.915 29.064 81.1409 28.8997C81.5434 28.607 81.7488 28.1016 81.6644 27.6125L80.7563 22.3183L84.6033 18.5684C84.9599 18.2209 85.0905 17.6911 84.936 17.2192ZM109.873 16.3229C110.365 16.3953 110.782 16.7469 110.936 17.2192C111.091 17.6911 110.96 18.2209 110.603 18.5684L106.756 22.3183L107.664 27.6125C107.749 28.1016 107.543 28.607 107.141 28.8997C106.915 29.064 106.647 29.1509 106.367 29.1509C106.154 29.1509 105.942 29.0988 105.755 29.0001L101 26.5005L96.2458 29.0001C96.058 29.0987 95.8462 29.1509 95.6333 29.1509C95.3524 29.1509 95.0846 29.064 94.8587 28.8997C94.4562 28.6074 94.251 28.1018 94.336 27.612L95.243 22.3183L91.3967 18.5683C91.0409 18.2219 90.9099 17.6923 91.0632 17.2194C91.2174 16.7468 91.6343 16.3951 92.1256 16.3231L97.4425 15.5509L99.8191 10.7344C100.039 10.2883 100.503 10 101 10C101.498 10 101.961 10.2884 102.18 10.7346L104.557 15.5509L109.873 16.3229ZM136.936 17.2192C136.782 16.7469 136.365 16.3953 135.873 16.3229L130.557 15.5509L128.18 10.7346C127.961 10.2884 127.498 10 127 10C126.503 10 126.039 10.2883 125.819 10.7344L123.443 15.5509L118.126 16.3231C117.634 16.3951 117.217 16.7468 117.063 17.2194C116.91 17.6923 117.041 18.2219 117.397 18.5683L121.243 22.3183L120.336 27.612C120.251 28.1018 120.456 28.6074 120.859 28.8997C121.085 29.064 121.352 29.1509 121.633 29.1509C121.846 29.1509 122.058 29.0987 122.246 29.0001L127 26.5005L131.755 29.0001C131.942 29.0988 132.154 29.1509 132.367 29.1509C132.647 29.1509 132.915 29.064 133.141 28.8997C133.543 28.607 133.749 28.1016 133.664 27.6125L132.756 22.3183L136.603 18.5684C136.96 18.2209 137.091 17.6911 136.936 17.2192ZM31.8731 16.3229C32.3651 16.3953 32.7822 16.7469 32.936 17.2192C33.0905 17.6911 32.9599 18.2209 32.6033 18.5684L28.7563 22.3183L29.6644 27.6125C29.7488 28.1016 29.5434 28.607 29.1409 28.8997C28.915 29.064 28.6474 29.1509 28.3668 29.1509C28.1541 29.1509 27.9425 29.0988 27.7549 29.0001L23.0004 26.5005L18.2458 29.0001C18.058 29.0987 17.8462 29.1509 17.6333 29.1509C17.3524 29.1509 17.0847 29.064 16.8587 28.8997C16.4562 28.6074 16.251 28.1018 16.336 27.612L17.243 22.3183L13.3967 18.5683C13.0409 18.2219 12.9099 17.6923 13.0632 17.2194C13.2174 16.7468 13.6343 16.3951 14.1256 16.3231L19.4425 15.5509L21.8191 10.7344C22.0389 10.2883 22.5026 10 23.0004 10C23.4977 10 23.9607 10.2884 24.1801 10.7346L26.5572 15.5509L31.8731 16.3229Z" fill="#f1e7b2"/>
</svg>
